<svg version="1.1" xmlns="http://www.w3.org/2000/svg" xmlns:xlink="http://www.w3.org/1999/xlink" x="0px" y="0px"
	 viewBox="0 0 22 22" enable-background="new 0 0 22 22" xml:space="preserve">
<g>
	<path d="M20.352,3.071l-7.91,7.913l7.91,7.943l0.43,0.43c0.027,0,0.027,0.027,0.058,0.058
		c0.399,0.399,0.399,1.028,0,1.431c-0.399,0.398-1.027,0.398-1.429,0c-0.028-0.029-0.059-0.029-0.059-0.059l-0.428-0.43
		l-7.938-7.914l-7.912,7.914l-0.428,0.43c-0.027,0.027-0.027,0.027-0.057,0.057c-0.4,0.399-1.057,0.399-1.428,0
		c-0.4-0.4-0.4-1.029,0-1.43c0-0.027,0.027-0.057,0.057-0.057l0.428-0.43l7.91-7.943L1.646,3.07l-0.428-0.43
		C1.189,2.612,1.162,2.612,1.162,2.584c-0.4-0.4-0.4-1.057,0-1.429c0.371-0.4,1.027-0.4,1.428,0c0.029,0,0.057,0.028,0.057,0.057
		l0.428,0.429l7.912,7.914l7.938-7.914l0.428-0.429c0-0.028,0.029-0.057,0.059-0.057c0.398-0.4,1.027-0.4,1.429,0
		c0.399,0.372,0.399,1.028,0,1.429c-0.029,0.028-0.029,0.028-0.058,0.057L20.352,3.071z"/>
</g>
</svg>
