<?xml version="1.0" encoding="UTF-8"?><!DOCTYPE svg PUBLIC "-//W3C//DTD SVG 1.1//EN" "http://www.w3.org/Graphics/SVG/1.1/DTD/svg11.dtd"><svg xmlns="http://www.w3.org/2000/svg"><symbol id="close" viewBox="0 0 22 22"><path d="M20.352 3.071l-7.91 7.913 7.91 7.943.43.43c.027 0 .027.027.058.058a1.005 1.005 0 0 1 0 1.431 1.004 1.004 0 0 1-1.429 0c-.028-.029-.059-.029-.059-.059l-.428-.43-7.938-7.914-7.912 7.914-.428.43-.057.057c-.4.399-1.057.399-1.428 0-.4-.4-.4-1.029 0-1.43 0-.027.027-.057.057-.057l.428-.43 7.91-7.943-7.91-7.914-.428-.43c-.029-.028-.056-.028-.056-.056-.4-.4-.4-1.057 0-1.429.371-.4 1.027-.4 1.428 0a.06.06 0 0 1 .057.057l.428.429 7.912 7.914 7.938-7.914.428-.429c0-.028.029-.057.059-.057a1 1 0 0 1 1.429 0c.399.372.399 1.028 0 1.429l-.058.057-.431.43z"/></symbol></svg>